<?xml version="1.0" standalone="no"?>
<!DOCTYPE svg PUBLIC "-//W3C//DTD SVG 20010904//EN"
 "http://www.w3.org/TR/2001/REC-SVG-20010904/DTD/svg10.dtd">
<svg version="1.0" xmlns="http://www.w3.org/2000/svg"
 width="700.000000pt" height="700.000000pt" viewBox="0 0 700.000000 700.000000"
 preserveAspectRatio="xMidYMid meet">
<metadata>
Created by potrace 1.11, written by Peter Selinger 2001-2013
</metadata>
<g transform="translate(0.000000,700.000000) scale(0.100000,-0.100000)"
fill="#000000" stroke="none">
<path d="M2250 6979 c-96 -16 -116 -21 -180 -46 -189 -75 -361 -261 -410 -443
-7 -25 -15 -54 -18 -65 -4 -11 -8 -339 -9 -730 -2 -390 -4 -784 -6 -875 l-2
-164 -72 -1 c-80 -2 -114 -15 -140 -54 -15 -23 -18 -58 -19 -291 -1 -146 -2
-270 -3 -276 0 -7 -72 -72 -159 -145 -86 -74 -168 -144 -182 -155 -14 -12 -83
-72 -155 -133 l-130 -110 -382 -1 -383 0 0 -115 c0 -103 2 -115 18 -116 9 0
198 0 419 0 289 -1 407 3 423 11 22 12 42 28 124 101 23 19 136 116 251 214
116 97 225 191 244 207 80 72 165 129 214 143 78 22 135 26 152 8 34 -33 18
-55 -206 -278 -122 -121 -227 -231 -233 -245 -26 -51 3 -129 55 -151 20 -8
214 -11 669 -13 623 -1 642 -2 656 -20 18 -25 18 -47 0 -72 -14 -18 -34 -19
-495 -24 l-481 -5 -25 -26 c-53 -52 -48 -132 10 -177 l28 -22 643 0 c631 0
644 0 664 -20 25 -25 25 -55 0 -80 -19 -19 -36 -19 -587 -19 -312 0 -603 -1
-647 -1 -75 0 -79 -1 -112 -34 -29 -29 -34 -41 -34 -80 0 -36 6 -52 29 -78
l29 -33 534 -5 c293 -3 541 -9 551 -14 27 -13 27 -74 -1 -91 -11 -6 -197 -11
-517 -12 -275 -1 -512 -2 -527 -2 -14 -1 -40 -13 -57 -27 -58 -49 -58 -127 1
-176 l32 -28 316 0 c348 -1 382 -10 130 -36 -19 -2 -55 -6 -80 -9 -47 -7 -59
-8 -155 -20 -32 -4 -66 -8 -75 -10 -8 -1 -42 -6 -75 -9 -33 -4 -71 -9 -85 -11
-52 -8 -146 -18 -160 -18 -8 1 -69 16 -135 35 -66 20 -244 71 -395 114 l-275
78 -418 1 -418 1 3 -115 3 -116 400 -2 400 -1 140 -41 c77 -22 158 -46 180
-52 22 -6 67 -20 100 -30 33 -10 80 -23 105 -29 25 -7 50 -16 55 -20 6 -5 10
-205 9 -567 -1 -537 0 -559 19 -594 11 -21 31 -43 45 -50 20 -11 172 -14 809
-14 l784 0 -7 -50 c-5 -27 -7 -72 -6 -99 4 -142 115 -281 256 -321 49 -13 72
-16 246 -31 41 -3 86 -7 100 -9 14 -2 68 -6 120 -10 52 -3 106 -8 120 -10 14
-2 54 -7 90 -10 62 -5 100 -9 228 -20 31 -3 77 -7 102 -10 25 -2 77 -7 115
-10 83 -7 138 -12 220 -20 33 -3 85 -8 115 -10 30 -2 81 -7 113 -10 31 -3 85
-8 120 -11 34 -3 78 -7 97 -9 19 -2 73 -7 120 -10 47 -4 94 -9 105 -11 33 -7
255 -18 335 -17 75 0 262 11 290 17 8 1 38 6 65 10 64 10 79 12 140 25 28 5
68 12 90 15 23 4 52 9 65 11 14 3 124 23 245 45 121 22 231 42 245 45 54 10
201 35 210 35 6 0 10 47 10 120 l0 120 -32 -5 c-76 -13 -150 -26 -175 -30 -24
-5 -151 -28 -218 -40 -11 -1 -31 -6 -45 -9 -14 -3 -38 -7 -55 -10 -16 -2 -131
-23 -255 -46 -355 -65 -399 -70 -640 -65 -118 2 -227 6 -243 9 -24 4 -59 7
-224 21 -23 2 -61 6 -85 9 -24 2 -79 7 -123 11 -80 6 -150 13 -215 20 -19 2
-71 6 -115 10 -44 3 -96 8 -115 10 -19 2 -66 7 -105 10 -38 3 -92 8 -120 11
-27 2 -77 6 -110 9 -33 3 -82 7 -110 10 -27 3 -75 7 -105 10 -30 3 -75 7 -100
10 -25 2 -81 7 -125 10 -44 3 -91 8 -105 10 -14 2 -65 6 -115 10 -109 8 -148
23 -175 67 -39 64 -14 152 53 179 26 11 187 14 852 15 646 0 829 3 862 13 104
34 188 137 199 249 11 101 -8 141 -174 362 -81 107 -152 206 -159 219 -17 32
-16 96 2 131 30 59 103 86 167 61 13 -5 145 -129 293 -276 149 -147 284 -274
301 -281 24 -10 170 -13 672 -13 l642 0 0 114 c0 81 -3 114 -12 117 -7 2 -282
3 -611 3 l-597 -1 -260 256 -260 257 0 1329 c0 1035 -3 1334 -13 1353 -24 48
-60 64 -142 65 -59 1 -75 4 -76 16 -3 41 -4 316 -2 325 2 7 42 11 106 10 157
-2 257 29 340 104 95 86 137 186 134 319 -2 75 -7 96 -35 154 -55 113 -143
187 -262 222 -30 9 -56 16 -57 16 -2 0 -16 0 -33 0 l-29 0 24 35 c97 144 70
344 -62 465 -119 109 -297 125 -435 40 -45 -27 -48 -28 -48 -9 0 11 -9 47 -21
81 -60 179 -222 303 -410 316 -135 8 -262 -36 -355 -126 -65 -62 -102 -126
-130 -220 -11 -41 -24 -70 -28 -63 -19 30 -155 78 -221 79 -44 0 -149 -29
-190 -54 -171 -100 -227 -340 -119 -506 l24 -38 -27 -1 c-37 -1 -71 -7 -113
-21 -19 -6 -37 -12 -40 -12 -3 -1 -5 123 -6 274 -1 307 -5 355 -40 454 -94
270 -340 454 -629 469 -38 2 -90 0 -115 -4z m249 -258 c101 -41 182 -109 234
-200 62 -106 61 -95 64 -602 l4 -467 -43 -21 c-103 -49 -181 -166 -190 -284
l-2 -28 -229 1 c-126 1 -231 -1 -234 -4 -3 -3 -6 -54 -6 -113 l0 -108 234 0
234 0 0 62 c0 69 9 75 19 11 13 -79 108 -269 146 -293 6 -3 10 -9 10 -13 0 -4
-196 -7 -435 -7 -379 0 -436 2 -439 15 -10 37 1 1707 12 1738 25 77 70 151
122 203 59 60 111 91 200 121 74 25 222 19 299 -11z m1801 -223 c57 -30 82
-53 108 -97 26 -44 27 -54 32 -216 3 -106 10 -178 17 -191 28 -49 105 -70 156
-42 12 6 67 56 122 111 114 114 139 128 199 115 79 -18 125 -98 97 -170 -6
-15 -60 -78 -121 -139 -60 -61 -111 -118 -111 -127 -1 -9 -3 -28 -4 -42 -3
-25 9 -55 29 -76 32 -31 62 -36 245 -37 187 -2 188 -2 227 -29 96 -66 107
-186 27 -270 -40 -42 -78 -49 -260 -50 -183 0 -219 -8 -248 -52 -10 -15 -20
-46 -23 -71 -2 -25 -7 -45 -9 -45 -3 0 -19 12 -36 26 -16 14 -64 43 -106 64
-109 54 -174 70 -304 74 -177 6 -338 -52 -477 -172 l-49 -43 -35 70 c-117 232
-351 374 -626 380 -52 1 -96 4 -98 6 -11 11 38 67 77 88 44 23 55 24 228 25
153 1 187 4 208 18 49 32 69 100 43 147 -6 12 -58 69 -116 127 -57 58 -108
115 -113 128 -11 30 -4 88 16 118 34 53 121 72 173 38 15 -10 72 -62 127 -116
60 -60 111 -102 130 -107 39 -10 83 3 115 34 24 25 25 31 31 193 3 92 10 178
15 192 26 71 85 128 154 149 43 12 127 7 160 -11z m-995 -1288 c173 -67 283
-200 308 -374 9 -65 9 -80 -6 -110 -29 -62 -52 -70 -211 -71 -180 -1 -244 9
-331 50 -155 74 -262 240 -261 402 1 51 5 66 26 88 14 15 34 31 45 35 11 4 99
7 195 5 155 -2 182 -5 235 -25z m1145 -224 c75 -20 143 -59 205 -120 48 -48
115 -161 115 -195 0 -15 -44 -16 -450 -16 -445 0 -450 0 -444 20 16 57 65 137
119 191 121 122 282 164 455 120z m-2605 -565 c19 -1 20 -7 18 -103 -1 -57 -2
-110 -2 -118 -1 -12 -16 -15 -69 -16 -64 -1 -138 -11 -154 -21 -5 -2 -8 54 -8
126 0 77 4 131 10 133 8 2 130 2 205 -1z m473 0 c9 -1 12 -101 12 -466 l0
-465 -115 0 -115 0 -1 28 c0 15 -1 224 -2 464 -2 430 -2 437 18 440 17 3 161
2 203 -1z m2682 0 l26 -1 -1 -1222 0 -1222 -34 -4 c-143 -16 -276 -140 -309
-288 -10 -43 -8 -123 4 -177 7 -33 51 -128 64 -137 4 -3 68 -88 144 -188 142
-191 149 -207 108 -239 -12 -10 -273 -13 -1226 -13 l-1211 0 0 531 1 531 27
24 c45 38 76 93 83 145 l7 49 113 0 c138 0 199 19 263 82 62 62 84 109 89 199
l4 75 44 13 c60 18 127 80 161 148 22 46 27 70 26 125 -2 164 -130 288 -298
288 l-53 0 1 49 c1 115 -58 215 -158 266 -53 27 -69 30 -184 35 l-125 5 -1
455 c0 250 3 460 6 465 5 7 416 9 1206 8 659 -1 1209 -2 1223 -2z m-3135 -898
c-1 -24 -6 -28 -36 -31 l-34 -4 29 31 c36 38 42 38 41 4z m465 -2002 l0 -426
-117 117 -116 116 0 291 c0 161 2 294 5 296 2 2 24 7 49 9 84 9 144 17 146 20
2 1 10 3 18 3 13 0 15 -54 15 -426z m-469 352 c0 -10 1 -137 1 -282 l1 -263
-117 -117 -116 -116 0 381 0 382 33 6 c17 3 64 9 102 12 39 4 72 8 74 10 10 9
21 3 22 -13z m214 -853 l90 -90 -185 0 -185 0 91 90 c50 50 93 90 95 90 3 0
45 -40 94 -90z"/>
<path d="M2108 6049 c-5 -3 -10 -55 -11 -115 l-1 -109 234 0 235 0 1 113 0
112 -25 1 c-203 3 -425 3 -433 -2z"/>
<path d="M2099 5566 c-5 -175 -3 -206 11 -210 8 -2 114 -3 235 -2 l220 1 0
115 0 115 -232 1 c-231 1 -233 1 -234 -20z"/>
<path d="M3966 5897 c-16 -96 -104 -182 -195 -189 -35 -3 -33 6 -33 -143 0
-41 1 -80 1 -86 1 -6 18 -8 49 -5 221 26 397 204 414 421 l3 40 -117 1 -116 0
-6 -39z"/>
<path d="M4326 5778 c17 -168 123 -314 278 -383 55 -24 77 -30 149 -39 l37 -5
0 119 0 120 -27 0 c-94 1 -203 115 -203 213 0 15 -12 17 -119 17 l-119 0 4
-42z"/>
</g>
</svg>
